<?xml version="1.0" standalone="no"?>
<!DOCTYPE svg PUBLIC "-//W3C//DTD SVG 20010904//EN"
 "http://www.w3.org/TR/2001/REC-SVG-20010904/DTD/svg10.dtd">
<svg version="1.0" xmlns="http://www.w3.org/2000/svg"
 width="260.000000pt" height="260.000000pt" viewBox="0 0 260.000000 260.000000"
 preserveAspectRatio="xMidYMid meet">
<metadata>
Created by potrace 1.11, written by Peter Selinger 2001-2013
</metadata>
<g transform="translate(0.000000,260.000000) scale(0.100000,-0.100000)"
fill="#000000" stroke="none">
<path d="M1129 2599 c-1 -2 -2 -406 -2 -897 -2 -843 -1 -892 16 -893 9 -1 29
-2 45 -3 l27 -1 3 299 2 298 63 65 c200 207 276 376 282 623 7 263 -79 437
-238 485 -43 13 -196 31 -198 24z m191 -119 c19 -10 45 -29 56 -42 31 -34 71
-108 80 -148 4 -19 9 -42 12 -50 2 -8 5 -63 7 -122 5 -212 -53 -363 -204 -528
l-50 -55 -1 487 0 488 33 -7 c17 -3 48 -14 67 -23z"/>
<path d="M569 1833 c-2 -855 -2 -896 1 -976 l2 -58 46 3 47 3 0 80 c0 44 4 85
8 92 4 6 33 26 65 43 31 18 67 39 79 47 l21 14 0 -131 c0 -72 3 -134 7 -138 3
-4 24 -7 46 -7 l39 0 0 892 0 893 -45 0 -45 0 -1 -42 c0 -24 0 -333 0 -688
l-1 -644 -21 -16 c-33 -23 -141 -90 -147 -90 -3 0 -5 333 -5 740 l0 740 -47 0
-47 0 -2 -757z"/>
<path d="M1610 1700 c0 -537 4 -890 9 -890 25 0 165 119 240 204 206 234 288
457 291 786 2 211 -30 375 -101 518 -83 169 -231 272 -391 272 l-48 0 0 -890z
m230 722 c137 -103 205 -294 214 -607 9 -300 -81 -542 -282 -756 l-70 -74 0
744 c-1 410 1 748 4 752 6 11 91 -27 134 -59z"/>
<path d="M210 490 c0 -100 3 -120 15 -120 17 0 18 5 15 68 l-2 43 64 -3 63 -3
-1 -53 c-1 -44 1 -52 15 -50 23 5 24 233 1 233 -11 0 -15 -12 -17 -40 -1 -22
-2 -43 -2 -47 -1 -5 -28 -8 -62 -8 -51 0 -60 3 -58 18 5 49 -2 82 -16 82 -12
0 -15 -20 -15 -120z"/>
<path d="M571 585 c-36 -31 -49 -94 -32 -148 14 -42 76 -78 119 -71 60 11 103
67 97 124 -1 14 -3 33 -4 43 0 11 -15 32 -32 48 -42 39 -104 40 -148 4z m137
-38 c34 -68 7 -143 -54 -153 -92 -14 -127 145 -40 181 37 16 79 3 94 -28z"/>
<path d="M910 590 c-11 -11 -20 -33 -20 -48 0 -31 11 -39 95 -70 58 -20 67
-48 24 -69 -33 -16 -85 0 -94 28 -8 23 -35 26 -35 4 0 -22 45 -65 70 -66 11
-1 26 -2 33 -3 26 -4 65 16 75 38 23 51 0 83 -74 105 -58 17 -73 33 -55 60 14
22 73 16 90 -8 7 -12 20 -21 27 -21 23 0 16 27 -12 49 -35 28 -97 28 -124 1z"/>
<path d="M1203 490 c0 -104 2 -120 16 -120 12 0 16 10 16 47 l0 46 54 3 c80 3
115 47 85 105 -15 30 -34 36 -115 38 l-56 2 0 -121z m135 78 c7 -7 12 -22 12
-35 0 -33 -40 -45 -111 -34 -4 1 -6 19 -5 41 l1 40 46 0 c25 0 50 -5 57 -12z"/>
<path d="M1519 603 c-1 -5 -2 -59 -3 -121 -1 -96 1 -112 14 -110 22 5 27 238
5 238 -8 0 -16 -3 -16 -7z"/>
<path d="M1677 603 c-16 -15 -5 -23 33 -23 l40 0 0 -105 c0 -87 3 -105 15
-105 12 0 15 18 15 105 l0 105 40 0 c28 0 40 4 40 14 0 11 -20 14 -88 15 -49
1 -92 -2 -95 -6z"/>
<path d="M2023 598 c-4 -7 -26 -61 -49 -120 -36 -93 -39 -108 -24 -108 10 0
23 15 32 38 l15 38 49 -5 c45 -6 50 -9 59 -38 6 -22 15 -33 27 -33 10 0 18 3
18 7 0 4 -21 58 -47 120 -45 107 -62 129 -80 101z m47 -100 c9 -30 1 -36 -41
-30 -28 4 -28 5 -13 33 8 16 12 29 9 29 -3 0 0 10 6 22 l12 22 10 -24 c5 -14
13 -37 17 -52z"/>
<path d="M2250 490 l0 -120 75 0 c59 0 75 3 75 14 0 11 -11 14 -45 12 -25 -1
-50 1 -57 5 -9 6 -13 38 -14 101 -2 114 -1 108 -19 108 -12 0 -15 -20 -15
-120z"/>
<path d="M239 206 c-1 -1 -3 -44 -5 -96 -2 -66 1 -97 9 -102 8 -5 14 5 17 35
5 41 5 42 48 43 50 1 75 21 75 59 0 41 -24 58 -87 60 -31 1 -57 1 -57 1z m110
-40 c22 -27 -4 -56 -49 -56 -39 0 -40 1 -40 35 0 34 1 35 39 35 21 0 44 -6 50
-14z"/>
<path d="M540 199 c-51 -19 -71 -87 -45 -152 11 -28 63 -50 100 -43 45 9 67
37 73 94 3 40 0 53 -19 75 -27 30 -71 41 -109 26z m67 -23 c51 -17 49 -121 -2
-144 -73 -34 -130 74 -71 133 24 24 32 25 73 11z"/>
<path d="M799 202 c-14 -2 -17 -19 -17 -102 -1 -83 1 -98 13 -94 10 4 15 20
15 45 0 36 2 39 28 39 22 0 35 -10 60 -45 27 -39 52 -58 52 -40 0 13 -30 62
-45 75 -14 12 -13 14 7 24 29 14 36 67 13 86 -15 13 -90 20 -126 12z m110 -41
c14 -25 -3 -38 -57 -45 l-42 -5 0 35 c0 34 0 34 45 34 33 0 47 -5 54 -19z"/>
<path d="M1040 193 c0 -8 13 -13 33 -13 l32 0 0 -87 c0 -60 4 -88 13 -90 9 -4
12 18 12 86 l0 91 35 0 c23 0 33 4 30 13 -4 8 -29 12 -80 12 -53 0 -75 -4 -75
-12z"/>
<path d="M1325 187 c-37 -32 -49 -96 -24 -136 31 -51 81 -63 135 -33 56 31 52
147 -6 177 -41 21 -75 19 -105 -8z m110 -30 c30 -43 14 -110 -31 -127 -57 -22
-102 34 -83 104 15 55 82 68 114 23z"/>
<path d="M1594 198 c-5 -7 -7 -72 -5 -161 l1 -37 58 5 c73 6 102 34 102 100 0
66 -30 96 -98 99 -29 2 -55 -1 -58 -6z m104 -26 c21 -14 30 -65 18 -102 -10
-33 -14 -35 -57 -38 l-46 -3 1 76 1 75 35 0 c19 0 41 -4 48 -8z"/>
<path d="M1877 203 c-4 -3 -7 -51 -7 -105 0 -75 3 -99 12 -96 9 3 13 33 13 97
1 89 -4 118 -18 104z"/>
<path d="M2064 202 c-12 -8 -74 -165 -74 -188 0 -25 16 -15 31 19 14 32 19 34
84 28 8 0 15 -7 15 -15 0 -16 26 -46 40 -46 9 0 -64 187 -78 202 -4 4 -12 4
-18 0z m38 -99 c6 -7 7 -13 2 -14 -5 0 -19 -2 -32 -3 -27 -3 -38 10 -24 27 6
7 11 17 11 22 1 6 4 19 8 30 5 17 8 14 16 -15 5 -19 13 -41 19 -47z"/>
<path d="M2273 195 c-27 -19 -30 -56 -5 -77 9 -8 36 -20 60 -27 31 -9 42 -17
42 -32 0 -29 -46 -44 -76 -24 -13 8 -24 20 -24 25 0 6 -7 10 -15 10 -22 0 -18
-18 10 -45 54 -55 153 -12 125 54 -8 21 -22 30 -60 40 -65 17 -77 50 -21 64
17 4 30 -1 47 -19 21 -20 26 -21 31 -8 15 39 -73 69 -114 39z"/>
</g>
</svg>
